<svg fill="none" height="512" viewBox="0 0 512 512" width="512" xmlns="http://www.w3.org/2000/svg" xmlns:xlink="http://www.w3.org/1999/xlink">
  <filter id="a" color-interpolation-filters="sRGB" filterUnits="userSpaceOnUse" height="254.321" width="310.249" x="55.8876" y="100.184">
    <feFlood flood-opacity="0" result="BackgroundImageFix"/>
    <feColorMatrix in="SourceAlpha" result="hardAlpha" type="matrix" values="0 0 0 0 0 0 0 0 0 0 0 0 0 0 0 0 0 0 127 0"/>
    <feOffset dx="10" dy="11"/>
    <feGaussianBlur stdDeviation="5"/>
    <feComposite in2="hardAlpha" operator="out"/>
    <feColorMatrix type="matrix" values="0 0 0 0 0.196078 0 0 0 0 0.14902 0 0 0 0 0.305882 0 0 0 0.1 0"/>
    <feBlend in2="BackgroundImageFix" mode="normal" result="effect1_dropShadow_86_454"/>
    <feBlend in="SourceGraphic" in2="effect1_dropShadow_86_454" mode="normal" result="shape"/>
  </filter>
  <filter id="b" color-interpolation-filters="sRGB" filterUnits="userSpaceOnUse" height="230.054" width="211.225" x="266.775" y="154.973">
    <feFlood flood-opacity="0" result="BackgroundImageFix"/>
    <feColorMatrix in="SourceAlpha" result="hardAlpha" type="matrix" values="0 0 0 0 0 0 0 0 0 0 0 0 0 0 0 0 0 0 127 0"/>
    <feOffset dx="10" dy="11"/>
    <feGaussianBlur stdDeviation="5"/>
    <feComposite in2="hardAlpha" operator="out"/>
    <feColorMatrix type="matrix" values="0 0 0 0 0.196078 0 0 0 0 0.14902 0 0 0 0 0.305882 0 0 0 0.3 0"/>
    <feBlend in2="BackgroundImageFix" mode="normal" result="effect1_dropShadow_86_454"/>
    <feBlend in="SourceGraphic" in2="effect1_dropShadow_86_454" mode="normal" result="shape"/>
  </filter>
  <linearGradient id="c" gradientUnits="userSpaceOnUse" x1="367" x2="141.185" y1="294.352" y2="294.352">
    <stop offset="0" stop-color="#29b1b6"/>
    <stop offset=".485661" stop-color="#cf25d2"/>
    <stop offset="1" stop-color="#ff7354"/>
  </linearGradient>
  <linearGradient id="d" gradientUnits="userSpaceOnUse" x1="307.254" x2="37.868" y1="110.629" y2="266.159">
    <stop offset="0" stop-color="#59d7ff"/>
    <stop offset=".485661" stop-color="#dc50ed"/>
    <stop offset="1" stop-color="#fff973"/>
  </linearGradient>
  <linearGradient id="e" gradientUnits="userSpaceOnUse" x1="384" x2="384" y1="114" y2="405">
    <stop offset="0" stop-color="#59d7ff"/>
    <stop offset=".485661" stop-color="#dc50ed"/>
    <stop offset="1" stop-color="#ff964a"/>
  </linearGradient>
  <rect fill="#32264e" fill-opacity="0" height="512" rx="90" width="512"/>
  <path clip-rule="evenodd" d="m346.137 177.705c42.948 74.389 17.461 169.509-56.928 212.458-20.331 11.738-42.21 18.364-64.149 20.277l-.062-.185c-3.427.491-6.93.745-10.492.745-40.494 0-73.321-32.827-73.321-73.321 0-30.518 18.644-56.681 45.163-67.72z" fill="url(#c)" fill-rule="evenodd"/>
  <g filter="url(#a)">
    <path d="m133.679 121.047c-74.3893 42.949-99.8769 138.069-56.9284 212.458l269.3864-155.53c-42.949-74.389-138.069-99.8764-212.458-56.928z" fill="url(#d)"/>
  </g>
  <g filter="url(#b)">
    <path d="m281.966 285.59c-20.255-11.496-20.255-40.684 0-52.18l131.225-74.483c19.999-11.352 44.809 3.094 44.809 26.09v148.966c0 22.996-24.81 37.442-44.809 26.09z" fill="url(#e)"/>
  </g>
</svg>
